<svg width="32" height="32" viewBox="0 0 32 32" fill="none" xmlns="http://www.w3.org/2000/svg">
  <rect width="32" height="32" rx="6" fill="#000000"/>
  <path d="M26.97 9.72C25.86 7.79 24.38 6.31 22.45 5.2C20.52 4.09 18.41 3.53 16.11 3.53C13.81 3.53 11.7 4.09 9.77 5.2C7.84 6.31 6.36 7.79 5.25 9.72C4.14 11.65 3.58 13.76 3.58 16.06C3.58 18.84 4.37 21.33 5.95 23.54C7.53 25.74 9.57 27.27 12.08 28.12C12.37 28.17 12.59 28.13 12.73 28C12.87 27.87 12.94 27.71 12.94 27.51C12.94 27.48 12.94 27.19 12.93 26.62C12.92 26.05 12.92 25.56 12.92 25.13L12.54 25.2C12.29 25.24 11.98 25.26 11.61 25.25C11.24 25.25 10.86 25.21 10.46 25.14C10.07 25.06 9.7 24.9 9.36 24.64C9.02 24.38 8.78 24.03 8.64 23.6L8.47 23.22C8.36 22.96 8.19 22.67 7.95 22.37C7.71 22.06 7.46 21.85 7.22 21.74L7.1 21.66C7.02 21.61 6.95 21.55 6.88 21.47C6.82 21.39 6.77 21.32 6.74 21.24C6.7 21.16 6.73 21.1 6.82 21.05C6.91 21 7.06 20.98 7.29 20.98L7.62 21.03C7.84 21.07 8.11 21.2 8.43 21.42C8.75 21.63 9.01 21.92 9.22 22.28C9.47 22.74 9.77 23.09 10.13 23.33C10.49 23.57 10.86 23.69 11.24 23.69C11.62 23.69 11.94 23.66 12.2 23.61C12.46 23.55 12.71 23.47 12.95 23.36C13.04 22.63 13.32 22.07 13.78 21.68C13.16 21.61 12.59 21.51 12.09 21.38C11.58 21.24 11.06 21.03 10.51 20.73C9.96 20.43 9.5 20.05 9.14 19.6C8.77 19.14 8.48 18.54 8.25 17.81C8.02 17.07 7.91 16.22 7.91 15.25C7.91 13.87 8.35 12.69 9.23 11.72C8.84 10.72 8.88 9.58 9.37 8.3C9.69 8.2 10.17 8.27 10.79 8.51C11.41 8.75 11.87 8.96 12.16 9.13C12.45 9.3 12.68 9.44 12.85 9.56C13.88 9.28 14.94 9.13 16.03 9.13C17.12 9.13 18.18 9.28 19.21 9.56L19.85 9.16C20.28 8.9 20.79 8.66 21.38 8.45C21.97 8.24 22.42 8.18 22.72 8.29C23.22 9.57 23.27 10.71 22.87 11.72C23.75 12.69 24.19 13.87 24.19 15.25C24.19 16.22 24.08 17.08 23.85 17.82C23.63 18.56 23.33 19.16 22.97 19.62C22.6 20.07 22.14 20.45 21.59 20.74C21.04 21.04 20.52 21.25 20.01 21.38C19.5 21.52 18.93 21.62 18.31 21.69C18.89 22.19 19.18 22.97 19.18 24.04L19.18 27.51C19.18 27.71 19.25 27.87 19.38 28C19.51 28.13 19.72 28.17 20.01 28.12C22.52 27.27 24.56 25.74 26.14 23.54C27.72 21.33 28.51 18.84 28.51 16.06C28.51 13.76 27.95 11.65 26.97 9.72Z" fill="white"/>
</svg>
