<svg width="32" height="32" viewBox="0 0 32 32" fill="none" xmlns="http://www.w3.org/2000/svg">
  <rect width="32" height="32" rx="6" fill="#000000"/>
  <path fill="white" d="M16 1.28C7.97 1.28 1.28 7.97 1.28 16C1.28 24.03 7.97 30.72 16 30.72C24.03 30.72 30.72 24.03 30.72 16C30.72 7.97 24.03 1.28 16 1.28ZM16 2.56C23.32 2.56 29.44 8.68 29.44 16C29.44 23.32 23.32 29.44 16 29.44C8.68 29.44 2.56 23.32 2.56 16C2.56 8.68 8.68 2.56 16 2.56ZM16 5.12C13.53 5.12 11.52 7.02 11.52 9.35C11.52 11.62 13.62 14.2 15.6 15.85C15.72 15.95 15.86 16 16 16C16.14 16 16.29 15.95 16.41 15.84C18.38 14.2 20.48 11.62 20.48 9.35C20.48 7.02 18.47 5.12 16 5.12ZM9.88 16C8.88 16.03 7.94 16.22 7.2 16.65C6.24 17.19 5.56 18.09 5.27 19.17C4.96 20.33 5.14 21.6 5.76 22.66C6.61 24.13 8.14 24.96 9.68 24.96C10.37 24.96 11.08 24.79 11.72 24.42C13.7 23.3 14.9 20.17 15.35 17.64C15.41 17.33 15.23 17.03 14.94 16.92C13.41 16.38 11.52 15.96 9.88 16ZM22.13 16C20.49 15.96 18.6 16.38 17.07 16.92C16.78 17.03 16.6 17.33 16.65 17.64C17.1 20.17 18.3 23.3 20.28 24.42C20.92 24.79 21.62 24.96 22.32 24.96C23.86 24.96 25.39 24.13 26.24 22.66C26.86 21.6 27.04 20.33 26.73 19.17C26.44 18.09 25.76 17.19 24.8 16.65C24.06 16.22 23.12 16.03 22.13 16Z"/>
</svg>
